<?xml version="1.0" standalone="no"?>
<!DOCTYPE svg PUBLIC "-//W3C//DTD SVG 20010904//EN"
 "http://www.w3.org/TR/2001/REC-SVG-20010904/DTD/svg10.dtd">
<svg version="1.0" xmlns="http://www.w3.org/2000/svg"
 width="500.000000pt" height="500.000000pt" viewBox="0 0 500.000000 500.000000"
 preserveAspectRatio="xMidYMid meet">

<g transform="translate(0.000000,500.000000) scale(0.100000,-0.100000)"
fill="#000000" stroke="none">
<path d="M1409 3860 c34 -28 78 -74 100 -103 33 -44 181 -291 181 -302 0 -2
13 -26 29 -53 16 -27 50 -89 77 -138 59 -111 229 -419 321 -584 86 -153 112
-202 192 -352 34 -65 65 -118 69 -118 4 0 39 49 79 108 39 59 125 184 191 277
65 94 151 217 192 275 40 58 101 144 134 192 34 48 115 165 182 260 66 95 184
264 262 375 78 112 142 205 142 208 0 3 -256 5 -570 5 l-570 0 -21 -42 c-12
-24 -67 -124 -122 -223 -55 -99 -100 -185 -100 -191 0 -6 50 -98 111 -205 61
-107 142 -250 180 -317 l70 -124 27 46 27 45 -83 148 c-45 81 -117 210 -160
287 l-77 138 29 50 c85 144 167 236 245 276 75 38 135 43 442 40 l293 -3 -147
-215 c-194 -283 -483 -707 -614 -903 -58 -86 -107 -157 -110 -157 -3 0 -17 21
-31 48 -110 203 -177 327 -209 382 -21 36 -48 85 -62 110 -14 25 -69 124 -123
220 -221 394 -215 382 -215 428 0 32 6 49 25 67 23 24 28 25 174 25 158 0 165
2 191 51 10 19 2 19 -400 19 l-411 0 60 -50z"/>
<path d="M3447 2693 c-3 -5 -12 -37 -21 -73 -56 -222 -205 -370 -374 -370
-105 0 -113 7 -212 195 -29 55 -65 122 -79 148 l-25 48 -18 -23 c-40 -50 -40
-48 43 -204 43 -82 82 -157 85 -166 5 -17 -7 -18 -158 -18 l-164 0 -22 -29
-21 -29 47 -5 c26 -4 228 -6 450 -7 l402 0 10 23 c12 26 110 474 110 500 0 11
-8 17 -24 17 -14 0 -27 -3 -29 -7z"/>
<path d="M930 1700 c0 -5 4 -10 8 -10 14 0 40 -58 146 -319 41 -100 77 -186
81 -189 11 -11 33 24 68 113 106 264 158 381 179 397 23 17 22 18 -44 18 -38
0 -68 -3 -68 -6 0 -3 7 -12 15 -20 8 -9 15 -24 15 -35 0 -19 -116 -318 -129
-332 -8 -9 -141 318 -141 349 0 11 5 25 12 32 9 9 -5 12 -65 12 -45 0 -77 -4
-77 -10z"/>
<path d="M1570 1690 l25 -19 0 -226 0 -226 -25 -19 c-25 -19 -24 -20 163 -20
141 0 189 3 192 13 2 6 6 34 10 60 l6 48 -40 -40 c-43 -43 -86 -55 -171 -49
l-45 3 0 107 0 108 51 0 c52 0 74 -11 92 -45 9 -16 11 -5 12 54 l0 73 -19 -23
c-16 -20 -28 -23 -77 -24 l-59 0 -1 108 -1 107 58 0 c69 0 104 -12 142 -48
l29 -27 -7 40 c-4 22 -8 46 -10 53 -3 9 -48 12 -177 12 -173 0 -173 0 -148
-20z"/>
<path d="M2091 1666 c-19 -77 -15 -85 22 -43 18 21 47 42 67 47 39 11 150 14
150 4 0 -4 -29 -59 -64 -123 -34 -64 -81 -150 -104 -191 -22 -41 -52 -95 -66
-120 -14 -25 -26 -48 -26 -52 0 -5 86 -8 190 -8 l190 0 0 23 c0 12 3 39 6 60
l7 38 -35 -35 c-42 -42 -96 -58 -188 -54 l-69 3 80 145 c45 80 97 177 117 215
20 39 51 85 70 103 l33 32 -184 0 -185 0 -11 -44z"/>
<path d="M2586 1702 c-3 -5 -8 -33 -11 -63 l-7 -54 28 34 c31 37 78 61 124 61
l30 0 0 -227 c0 -219 -1 -227 -22 -250 l-21 -23 83 0 c79 0 82 1 67 18 -14 15
-16 51 -17 246 -1 125 1 230 4 233 16 16 81 -12 120 -51 l43 -42 -4 50 c-3 28
-6 57 -8 64 -3 9 -53 12 -204 12 -110 0 -202 -4 -205 -8z"/>
<path d="M3138 1688 c21 -24 22 -30 22 -243 0 -211 -1 -220 -22 -242 l-21 -23
88 0 88 0 -21 23 c-19 20 -22 35 -22 115 0 50 3 93 8 95 10 6 72 -12 72 -21 0
-13 111 -186 128 -199 9 -7 36 -13 61 -13 l45 0 -26 28 c-15 15 -53 71 -86
124 l-61 97 35 22 c91 56 84 187 -12 235 -31 15 -66 20 -169 22 l-130 4 23
-24z m202 -21 c32 -16 70 -73 70 -106 0 -31 -32 -86 -58 -100 -11 -6 -38 -13
-61 -17 l-41 -7 0 122 0 121 33 0 c17 0 43 -6 57 -13z"/>
<path d="M3876 1702 c-2 -4 -27 -64 -55 -134 -104 -262 -142 -343 -169 -365
l-27 -23 64 0 c63 0 64 0 46 19 -16 19 -16 23 10 90 l28 71 91 0 91 0 23 -58
c25 -65 27 -93 10 -110 -9 -9 5 -12 67 -12 74 0 77 1 62 18 -19 21 -87 174
-211 475 -15 37 -21 43 -30 29z m27 -214 c19 -48 32 -89 29 -92 -7 -7 -142 -8
-142 -1 0 10 72 186 75 183 2 -2 19 -42 38 -90z"/>
</g>
</svg>
